<?xml version="1.0" standalone="no"?>
<!DOCTYPE svg PUBLIC "-//W3C//DTD SVG 20010904//EN"
 "http://www.w3.org/TR/2001/REC-SVG-20010904/DTD/svg10.dtd">
<svg version="1.0" xmlns="http://www.w3.org/2000/svg"
 width="731.000000pt" height="731.000000pt" viewBox="0 0 731.000000 731.000000"
 preserveAspectRatio="xMidYMid meet">
<metadata>
Created by potrace 1.15, written by Peter Selinger 2001-2017
</metadata>
<g transform="translate(0.000000,731.000000) scale(0.100000,-0.100000)"
fill="#000000" stroke="none">
<path d="M0 3655 l0 -3655 3655 0 3655 0 0 3655 0 3655 -3655 0 -3655 0 0
-3655z m3654 2120 c648 -13 1181 -27 1184 -30 3 -3 8 -136 10 -295 4 -237 7
-290 18 -290 18 0 18 -10 0 -24 -12 -9 -12 -160 2 -1058 9 -576 14 -1050 11
-1052 -2 -3 -513 4 -1134 14 -622 11 -1192 20 -1267 20 l-138 0 0 165 c0 91
-2 165 -5 165 -3 0 -38 -24 -78 -53 -89 -65 -164 -112 -195 -120 -35 -8 -116
19 -151 52 -22 20 -31 38 -31 60 0 27 21 48 205 203 113 95 212 174 220 176
32 7 12 -23 -67 -104 -45 -46 -79 -87 -75 -90 3 -3 43 22 88 56 l82 63 -7 281
c-3 155 -8 409 -11 566 -3 157 -10 497 -15 755 -6 259 -10 491 -10 518 l0 47
93 0 c50 0 623 -11 1271 -25z m-1343 -3184 l144 -249 3 250 2 249 38 -3 37 -3
0 -325 0 -325 -32 0 c-32 0 -36 4 -178 250 l-145 250 -2 -250 -3 -250 -35 0
-35 0 -3 328 -2 327 33 0 c33 0 35 -2 178 -249z m929 -81 l0 -330 -35 0 c-31
0 -35 3 -35 27 l0 26 -26 -24 c-22 -20 -35 -24 -93 -24 -58 0 -73 4 -103 27
-56 42 -71 95 -67 226 4 96 7 113 29 146 51 75 163 97 231 47 l29 -22 0 116 0
115 35 0 35 0 0 -330z m1263 144 c11 -4 13 -13 8 -32 -7 -24 -13 -28 -58 -32
-98 -10 -113 -44 -113 -255 l0 -155 -35 0 -35 0 0 235 0 235 35 0 c29 0 35 -4
35 -21 0 -20 0 -20 28 -1 15 10 34 22 42 25 20 7 75 8 93 1z m582 -13 c79 -36
104 -91 104 -226 1 -98 -16 -152 -60 -192 -77 -70 -221 -53 -279 33 -21 32
-25 50 -28 140 -3 61 0 116 7 137 35 106 153 156 256 108z m-1434 -143 c0
-182 9 -216 61 -241 46 -23 93 -13 122 27 19 25 21 44 24 197 l3 169 36 0 35
0 -4 -177 c-4 -197 -10 -222 -70 -265 -47 -33 -159 -33 -204 -1 -59 42 -69 78
-72 271 l-4 172 36 0 36 0 1 -152z m-284 -820 l48 -82 3 82 c2 64 6 82 17 82
12 0 15 -20 15 -110 0 -138 -11 -142 -77 -27 l-48 82 -3 -82 c-4 -124 -22
-102 -22 27 0 66 4 110 10 110 5 0 31 -37 57 -82z m333 62 c16 -16 20 -33 20
-90 0 -83 -18 -110 -75 -110 -57 0 -75 27 -75 110 0 83 18 110 75 110 22 0 43
-8 55 -20z m510 0 c16 -16 20 -33 20 -90 0 -83 -18 -110 -75 -110 -57 0 -75
27 -75 110 0 83 18 110 75 110 22 0 43 -8 55 -20z"/>
<path d="M4165 5658 c-203 -4 -666 -14 -1028 -22 -361 -7 -660 -16 -663 -18
-6 -6 -44 -1881 -38 -1887 7 -7 222 200 467 449 241 245 499 522 773 830 143
160 185 190 267 190 50 0 87 -13 87 -31 0 -5 -55 -108 -122 -227 -321 -574
-432 -815 -453 -984 -11 -91 12 -75 105 75 109 173 189 289 326 472 136 182
235 293 357 403 167 151 274 209 423 232 l81 12 7 96 c3 54 6 170 6 260 l0
162 -112 -2 c-62 0 -279 -5 -483 -10z"/>
<path d="M4694 5023 c-230 -173 -620 -576 -917 -946 -87 -109 -184 -239 -280
-377 -81 -116 -176 -153 -237 -92 -38 39 -54 99 -53 212 0 115 13 169 92 361
78 192 144 321 228 449 117 178 124 185 -166 -170 -101 -124 -241 -290 -312
-370 -123 -141 -430 -450 -556 -561 l-61 -54 -4 -164 -3 -163 280 1 c154 1
327 3 385 6 58 3 274 7 480 10 206 3 549 8 762 11 l386 7 6 121 c8 168 29
1746 24 1752 -3 2 -27 -12 -54 -33z"/>
<path d="M2997 2579 c-32 -19 -47 -73 -47 -166 0 -70 4 -95 20 -120 42 -70
154 -63 185 11 18 42 20 179 4 224 -6 17 -21 38 -34 46 -28 18 -101 21 -128 5z"/>
<path d="M4943 2578 c-36 -18 -53 -67 -53 -160 0 -104 18 -146 72 -166 31 -12
43 -12 80 -1 65 21 80 58 76 183 -4 96 -4 99 -36 127 -25 23 -42 29 -75 28
-23 0 -52 -5 -64 -11z"/>
<path d="M3612 1728 c-18 -18 -16 -142 2 -158 22 -18 59 -8 74 20 15 30 11
112 -8 135 -15 18 -51 20 -68 3z"/>
<path d="M4122 1728 c-18 -18 -16 -142 2 -158 22 -18 59 -8 74 20 15 30 11
112 -8 135 -15 18 -51 20 -68 3z"/>
</g>
</svg>
